<svg xmlns="http://www.w3.org/2000/svg" viewBox="0 0 769.13 769.13">
    <defs>
        <style>.cls-1{opacity:0.9;fill:#fff}.cls-2{fill:#fff;}</style>
    </defs>
    <g id="Layer_2" data-name="Layer 2">
        <g id="Layer_1-2" data-name="Layer 1">
            <g class="cls-1">
                <path class="cls-2" d="M384,67.75c174.28,0,315.59,141.22,315.62,315.5S558.42,698.83,384.14,698.87c-173.34,0-314.26-139.78-315.6-313.12C67.14,208.91,212.34,66.71,384,67.75Zm305.24,315.7c.12-168.54-136.42-305.26-305-305.38S79,214.49,78.92,383s136.42,305.27,305,305.38H384c168.26-.46,304.57-136.7,305.1-305Z"/>
                <path class="cls-2" d="M150.58,111.88c2.37,0,4.6,0,5.16,1.6,1.67,4.53,5.64,6,9.2,8.37a7.59,7.59,0,0,1,1.24,10.67c-.17.21-.35.42-.54.62-3.14,3.48-7,6.48-10.18,9.69-1.26,1.25-2.44.83-3.49,0l-15.12-16.94c-.7-.84-1.47-1.88-.56-2.79a37.55,37.55,0,0,1,13.59-10.87A1.1,1.1,0,0,1,150.58,111.88Zm7.6,14.36c-1.88,0-7,4.18-6.21,5.29s1.68,3.28,3,2.72a8.57,8.57,0,0,0,5.72-5.71c.28-1.47-1.19-2.3-2.51-2.3Zm-10.53,0c1.61-1.26,3.77-2.37,4.6-4.81,0-1.26,0-2.3-1.6-2.16a7,7,0,0,0-5.72,4.53c-.48.76.91,1.81,2.72,2.16Z"/>
                <path class="cls-2" d="M617.33,651a6.41,6.41,0,0,1-6.55-4.81,3.78,3.78,0,0,0-3.49-3.35,8,8,0,0,1-4.67-13,108.7,108.7,0,0,1,10.39-10c1.32-1.25,2.37-.77,3.41.42L631.55,637c.83,1,1.81,2.09.62,3.14a57.18,57.18,0,0,1-12.47,10.31A10.22,10.22,0,0,1,617.33,651Zm-.77-19.8c-1-1.25-1.6-2.72-3.34-2.79s-5.79,4.81-5.58,6a2.22,2.22,0,0,0,2.43,2,2.35,2.35,0,0,0,.57-.13,9.27,9.27,0,0,0,5.92-5.09Zm7,8.09c-.42-1.33-1.32-2.72-2.3-2.44a8.37,8.37,0,0,0-5.3,4.88c-.55,1.25.84,2.51,2,2.23a10.46,10.46,0,0,0,5.65-4.67Z"/>
                <path class="cls-2" d="M625,146.17a14.91,14.91,0,0,1-10.67-6c-5.65-5.37-5.65-5.37,0-11,3.76-4,7.6-7.8,11.29-11.78,1.81-1.95,3.35-2.09,5.23,0a51.72,51.72,0,0,0,4.81,4.67,11,11,0,0,1,3.76,14A17.12,17.12,0,0,1,625,146.17Zm8.36-15a7,7,0,0,0-3.83-5.93c-2.09-1.11-2.72,1.26-3.84,2.23s-3.83,3.91-5.78,5.72a2.44,2.44,0,0,0-.84,3.35,2.56,2.56,0,0,0,.84.83c1.67,1.39,3.27,3.55,5.85,2.23A14.37,14.37,0,0,0,633.36,131.12Z"/>
                <path class="cls-2" d="M144,618.85c4.88,0,7.73,3.13,10.73,6.06,6.21,6.13,7,3.83.42,10.8-3.14,3.42-6.41,7-9.62,10.18-4.32,4.6-4.32,4.6-8.85.42-1.05-1-2.09-2.16-3.21-3.21a10.88,10.88,0,0,1-3.34-13.94A16.41,16.41,0,0,1,144,618.85Zm-2.58,21.6a2.41,2.41,0,0,1,.63-1.25c2.16-2.3,4.39-4.53,6.41-7,.84-.91,3.21-1.67,1.32-3.49s-3.34-4.88-6.55-3.34a14,14,0,0,0-7,7.73C135.17,635.5,138.24,640.59,141.45,640.45Z"/>
                <path class="cls-2" d="M432.82,53.39l-9-1c-2.44,0-2.86-1.67-2.51-3.77,1-7,2.16-13.94,3-20.91,0-2.65,1.47-3.27,3.84-2.85s6.55,1,9.83,1.67a9.69,9.69,0,0,1,8.36,9.34,19.58,19.58,0,0,1-1.18,9.76C443.13,51.86,440.35,53.74,432.82,53.39Zm6.41-13.31V36.8a5.57,5.57,0,0,0-5.79-5.15c-4,0-2.71,2.78-3.13,4.67s-.77,5.36-1.33,8,0,2.93,2.37,3.28c5.65,1.11,7.95-1.19,8.44-7.32Z"/>
                <path class="cls-2" d="M335.23,710.65c12.34,0,12.76.69,11.29,12.61-.56,4.19-1.25,8.37-1.67,12.55,0,2.51-1.33,3.49-3.76,3.14s-6.35-.7-9.41-1.26a10.25,10.25,0,0,1-8.79-8.64,13.94,13.94,0,0,1,8.71-17.69A13.58,13.58,0,0,1,335.23,710.65Zm4.6,10.17c0-1.53.91-3.62-1.39-4.18s-4.88-1.11-6.56,1.4a13.92,13.92,0,0,0-1.6,10.87c.7,2.93,3.49,3.56,6.13,3.56s2.17-2.44,2.37-4.05.77-5.09,1.12-7.6Z"/>
                <path class="cls-2" d="M223,697.75c.35-6.13.7-12.34,1.19-18.47,0-1.46-.49-4,2-3.69s5.58.9,5.09,4c-.77,4.81,2.37,5.78,5.57,7a3.37,3.37,0,0,0,4.4-.7,5.33,5.33,0,0,1,2.58-1.74,5.07,5.07,0,0,1,4.87,1.88c1.47,1.74-.83,2.58-1.74,3.49-4.81,4.67-9.83,9.27-14.78,13.94-1.74,1.74-3.2,3.2-6.2,1.81a4.81,4.81,0,0,1-3.14-6,13.82,13.82,0,0,0,0-1.82Z"/>
                <path class="cls-2" d="M546.86,64.27c-.56,7-1.05,13.94-1.68,20.91,0,1.25.49,3.69-1.95,3.21s-5.09-.77-4.74-3.77c.49-4.25-2-5.78-5.09-7-2-1-3.62-1.46-5.16.63s-4.53,1.32-7,0-1.74-1.53-.48-2.72c6.13-5.58,12.26-11.15,18.33-16.8,2.09-2,3.9,0,5.78.35S546.79,62.39,546.86,64.27ZM539.4,68.1c-1.61,1.19-3.49,2-4.12,4C541.07,75,538.56,69.84,539.4,68.1Z"/>
                <path class="cls-2" d="M330,55c-2.3,0-2.79-.91-3.07-2.58-.83-4.74-1.81-9.48-2.43-13.94-.42-2.93-1.26-4.6-4.54-3.63s-4,0-4.32-2.86,1.75-2.64,3.42-2.92c5-.84,10.11-1.61,15.12-2.51,2-.35,3.49-.49,3.91,2.16s-.49,3.41-2.79,3.48c-4.11,0-4.6,2.16-3.83,5.65s1.46,8.64,2.37,12.9S332.93,55.14,330,55Z"/>
                <path class="cls-2" d="M434.35,737.34c-2,.42-2.65-.55-2.93-2.37s0-3.41,2.37-3.41c4.46,0,5.16-1.88,3.91-5.93s-1.54-8.92-2.37-13.31c-.49-2.37.41-3.35,2.72-3.62s3.83,0,4.25,2.44c.69,4.74,1.53,9.47,2.3,13.94.42,2.65,1.18,4.6,4.67,3.48,1.88-.63,3.76-.77,4.39,2.23s-1.19,3.21-3.28,3.56Z"/>
                <path class="cls-2" d="M36.54,391a7.67,7.67,0,0,1-8.22-7.07,6.61,6.61,0,0,1,0-1.09,8.43,8.43,0,0,1,8.29-8.43,8.9,8.9,0,0,1,8.64,8.71A8.29,8.29,0,0,1,36.56,391Z"/>
                <path class="cls-2" d="M731.51,391a7.81,7.81,0,0,1-8.29-7.3,6.94,6.94,0,0,1,0-.79,8.77,8.77,0,0,1,8.36-8.5,8.65,8.65,0,0,1,8.44,8.29,7.75,7.75,0,0,1-7.12,8.32A8,8,0,0,1,731.51,391Z"/>
                <path class="cls-2" d="M239.25,84.62c-1.26,0-1.61-1.18-2.1-2.09C234,76,231,69.5,227.74,63c-1.11-2.37-.41-3.62,1.82-4.6s3.55-1.18,4.67,1.4c2.92,6.48,6.06,12.82,9.06,19.24a4,4,0,0,1-4,5.57Z"/>
                <path class="cls-2" d="M529.36,679.14c1.53,0,1.88,1.32,2.37,2.37,3.07,6.34,6.06,12.76,9.13,19.1,1,2.09,1.12,3.49-1.32,4.67s-3.77.7-4.95-1.81c-2.86-6.28-6-12.41-8.93-18.68a3.91,3.91,0,0,1,1.75-5.24A4,4,0,0,1,529.36,679.14Z"/>
                <path class="cls-2" d="M540.37,258.47v43.91c0,11.92-.83,23.84-1.46,35.69,0,3.07,0,4.81,3.76,5.3a20.09,20.09,0,0,1,7,2.65,15.6,15.6,0,0,1,10,16,97.93,97.93,0,0,0,0,18.12,59.35,59.35,0,0,1-7,32.28,15.42,15.42,0,0,0-1.53,7,58.8,58.8,0,0,1-11.5,39.1,6.94,6.94,0,0,0-1.12,5.16v45.8a22.82,22.82,0,0,1-3.35,12.33,260.61,260.61,0,0,1-38.19,47c-19.1,20.21-39.81,38.75-59.81,58a25.51,25.51,0,0,1-16.52,5.93,290.31,290.31,0,0,1-69.71,0,33.37,33.37,0,0,1-20.56-8.79c-23.84-22.65-48.79-44.4-71-68.52a218,218,0,0,1-26.84-34.08,25.2,25.2,0,0,1-3.76-13.94c0-14.85,0-29.63.35-44.41a12.76,12.76,0,0,0-2.58-7.94,45.79,45.79,0,0,1-8.92-27.12,67.24,67.24,0,0,0-6.42-27,29.47,29.47,0,0,1-2.3-12.75c0-9.06.49-18.19,0-27.19a15.28,15.28,0,0,1,7.6-14.29,15.72,15.72,0,0,1,8.23-3.62c5.29,0,5.5-2.86,5.36-7-1.53-40.78-2.64-81.49-2.23-122.26a10.9,10.9,0,0,1,3.42-8.37c15.4-14.64,29.35-30.81,46.91-43.22a170.93,170.93,0,0,1,72.29-30.39,179.31,179.31,0,0,1,170.43,57c5.78,6.13,11.85,12.06,17.91,17.91a7,7,0,0,1,2.16,5.23v46.22ZM384.58,206.75H305.74a7,7,0,0,0-5.22,2.09c-9.76,9.9-19.59,19.65-29.49,29.48a7.9,7.9,0,0,0-2.58,6.35v55.76a14.72,14.72,0,0,1-1.81,7.32c-7.67,14.43-15.2,28.86-22.79,43.29a8.48,8.48,0,0,0-.77,7,62.18,62.18,0,0,1,0,28.65,76.59,76.59,0,0,0-3.7,15.82v44.4A117.06,117.06,0,0,0,245,485.22c4.81,15.26,10.8,29.83,26.28,37.85a28.91,28.91,0,0,1,7,5.16c3.14,3.13,5.79,2.58,9.41,0,17.78-11.16,35.48-22.31,54.09-32.14a42.88,42.88,0,0,1,41.2-2.16,5.5,5.5,0,0,0,5.5-.62,39.6,39.6,0,0,1,23.91-3,64.47,64.47,0,0,1,20.91,7.8c16.87,9.76,33.67,19.59,50.05,30a7,7,0,0,0,9.27,0c6.07-4.95,12.55-9.41,18.89-13.94a14.07,14.07,0,0,0,3.7-4.46,143.43,143.43,0,0,0,13.38-62.32c.49-12.34,0-24.75,0-37.15a42,42,0,0,0-2-14,59.21,59.21,0,0,1,0-37.71,9.59,9.59,0,0,0-.84-8.15c-7.8-13.94-15.33-28.37-23.07-42.59a14,14,0,0,1-1.67-7V245.57a7.9,7.9,0,0,0-1.95-6.2c-10-9.83-19.94-19.8-29.84-29.77a9.24,9.24,0,0,0-7-2.78ZM527.83,333.26h.76c.77-13.94,1.95-27.88,2.16-41.82.49-24.75,0-49.56.49-74.31a8.13,8.13,0,0,0-2.65-6.41c-5.85-5.65-11.64-11.36-17.28-17.29a162.43,162.43,0,0,0-53.75-39.17,182.31,182.31,0,0,0-88-14.5,161.31,161.31,0,0,0-103,45.31L242.45,209a13.08,13.08,0,0,0-4.32,9.9c0,30.81.63,61.62,1.46,92.42a170,170,0,0,0,1.12,24c5.37-10.1,10.18-19.3,15.12-28.37a23.33,23.33,0,0,0,2.65-11.29V239.86a7.68,7.68,0,0,1,2.44-6c11.43-11.22,22.73-22.58,33.95-33.94a8.06,8.06,0,0,1,6-2.58H468.51a6.93,6.93,0,0,1,5.57,2.3q16.94,17,34,33.94a9.17,9.17,0,0,1,2.86,7c0,19.31.48,38.62,0,57.93a9.33,9.33,0,0,0,1,4.81q7.82,15,15.83,29.83ZM430.24,618.5l1.11.41,23.35-22a5.37,5.37,0,0,0,1.26-4.6v-24c0-3.9.77-5.51,5.23-5.58s5.09,2.16,5,5.79V585l1.67,1.32a88.37,88.37,0,0,1,9.76-11.15,18.62,18.62,0,0,0,7.53-18,54.57,54.57,0,0,1,0-11.71,7,7,0,0,0-3.7-7c-18.75-11-37.22-22.52-56.11-33.18a33.8,33.8,0,0,0-34.85-1.75,10.91,10.91,0,0,1-10.46,0A33.4,33.4,0,0,0,346.31,505c-18.68,10.17-36.8,21.33-54.93,32.55a5.28,5.28,0,0,0-2.85,5.09v22.65a11.07,11.07,0,0,0,4.25,9.76c4.53,3.76,8.5,8.09,12.82,12.13a31.5,31.5,0,0,0,7,5.85V567.12c0-3.2.49-5.08,4.4-4.81s6.06,0,5.92,5c-.35,10.67,0,21.4,0,32.14a5.85,5.85,0,0,0,1.47,5c6.06,5.43,12.05,11,18.05,16.52a3.89,3.89,0,0,0,4.11,1.18c1.54-.56,1-2.3,1-3.55V577.3c0-4,1.32-5.16,5.23-5.16s5,1.33,5,5.23v41.82c0,3.21.49,4.81,4.33,5,5.85,0,11.78,0,17.63.56,3.56,0,4.32-1.18,4.25-4.46V584.06c0-3.83,1-5.44,5-5.3s5.3,1.19,5.16,5.23v36.67c0,2.79.63,3.76,3.56,3.41,5.85-.55,11.71-.35,17.63-.9,4-.35,5.3-1.82,5.23-5.86V573.82c0-4.05,2.16-4.26,5.16-4.26s5.23,0,5.09,4.33c-.35,5.78,0,11.5,0,17.21ZM538.77,437.26a44.14,44.14,0,0,0,2.58-15.82,29.61,29.61,0,0,1,2.58-13.18A47.85,47.85,0,0,0,550,383.1c-.49-7,0-13.94,0-21.33a10.45,10.45,0,0,0-10.52-8.64,1.61,1.61,0,0,0-1.54,1.32,60.7,60.7,0,0,0-2.09,37.71,52.34,52.34,0,0,1,2.86,17.71c-.42,9-.14,18.12-.14,27.25Zm-309.49-.76h.9v-7.95c.42-15.89-1-31.79,4.12-47.47a38.66,38.66,0,0,0-.7-21.89c-.56-2.23-1-5-3.63-5.85a10.3,10.3,0,0,0-10.8,8.57v25.3A28.55,28.55,0,0,0,221.61,400a54.28,54.28,0,0,1,6.27,27.88,42.87,42.87,0,0,0,1.19,8.51ZM278.63,561V543.91a6,6,0,0,0-2.86-5.64c-7.46-5.37-14.85-10.95-22.3-16.32a17.92,17.92,0,0,1-5.86-7c-2.3-5-4.88-9.76-7-14.63a25,25,0,0,0,1.11,15.47,259.26,259.26,0,0,0,36.67,45Zm216.57-5a211.65,211.65,0,0,0,32.21-39.87,25,25,0,0,0,1-12.2,26.66,26.66,0,0,0-2.92,6,26.85,26.85,0,0,1-11.78,14.84c-5.58,3.63-10.74,7.81-16.11,11.71a4.83,4.83,0,0,0-2.51,4c-.07,4.81-.14,9.76-.14,15.4Z"/>
                <path class="cls-2" d="M378.31,659.14c0,8.29-2.16,11.29-7,10.87a5.58,5.58,0,0,1-5.3-4.11,20.45,20.45,0,0,1,0-10.25,6.13,6.13,0,0,1,12.06,0A12.77,12.77,0,0,1,378.31,659.14Zm-4.95,1.46a14.23,14.23,0,0,0,0-1.6c0-1.4.49-3.7-1.4-3.77s-1.6,2.44-1.81,4a4.51,4.51,0,0,0,0,.9c0,1.95-.7,5.23,1.88,5.23s1-3.21,1.33-4.74Z"/>
                <path class="cls-2" d="M416.92,659.83c0-6.41,2.1-9.34,6.56-9.34s7,3.14,6.55,9.41-2.16,10-7,9.9S416.85,666.8,416.92,659.83Zm8.16,0c-.63-1.6,1.18-4.88-1.74-4.88s-1.47,3.07-1.47,4.81-.9,5.16,1.68,5.16,1.18-2.65,1.53-4.67Z"/>
                <path class="cls-2" d="M347.22,665.27c1.74,1.18,5.51-1,5.37,2.58s-3.7,1.53-5.72,2.23a2.94,2.94,0,0,1-1.32,0c-2-.49-4.74,1.25-5.72-1.19s1.39-4.39,3.07-6.13,2.92-3,4.32-4.6a1.81,1.81,0,0,0,.23-2.55,1.75,1.75,0,0,0-.23-.24c-1.05-1-2-.49-2.58.49a2.65,2.65,0,0,1-3.53,1.25,2.69,2.69,0,0,1-1-.83c-1.19-1.54,0-3.14,1.53-4.25a7.87,7.87,0,0,1,9.2,0,6.33,6.33,0,0,1,0,8.64A39.16,39.16,0,0,1,347.22,665.27Z"/>
                <path class="cls-2" d="M398,665.69h3.21c1.47,0,2.79,0,2.79,2s-1,2.3-2.58,2.3h-7c-1.25,0-3,.63-3.56-1.19a4.06,4.06,0,0,1,1.26-3.69c1.74-2,3.62-4,5.51-5.93s2.09-2.57.69-3.9-2.09,0-2.85,1a2.72,2.72,0,0,1-3.84.2,2,2,0,0,1-.21-.2c-1.18-1.19,0-2.58.77-3.63a7.39,7.39,0,0,1,9.41-1.25,5.57,5.57,0,0,1,1.52,7.74l-.2.27A56.46,56.46,0,0,1,398,665.69Z"/>
                <path class="cls-2" d="M363.11,393.63v61.13c0,4,1,5.92,5.3,5.37a16.6,16.6,0,0,1,16.52,6.27c1.11,1.53,2,1.11,3.07,0,7-9.27,17.14-7,26.41-6.27,3.49,0,1.61,4.18,1.89,6.48s-.42,3.27-2.72,3.27H404.1c-6.48,0-9.06,1.68-10.6,8.09-.83,3.49-2.58,4-5.64,4-4.53,0-7.95,0-9.06-5.78a7.75,7.75,0,0,0-8.86-6.14H359.49c-4.74.49-6.28-1.6-5.72-6,0-.6,0-1.21,0-1.81V343.79c0-4.05-1.11-5.44-5.3-5.44h-72A6,6,0,0,0,270.4,342c-1.25,2.37-2.92,4.61-4,7s-2.72,3.27-5.51,1.6c-5.36-3.28-5.43-3.07-2.09-8.65a20.39,20.39,0,0,0,2.3-3.9c2.86-8.57,8.79-10.25,17.36-10,26.56.63,53.18,0,79.74,0,4,0,5,1,4.95,5Z"/>
                <path class="cls-2" d="M457.56,326.15h41.83a5.87,5.87,0,0,1,6.06,3.56c2.23,4.39,4.6,8.78,7,13.1s-1.53,4.11-3.34,5.37-4,2.86-5.44-.49a10.77,10.77,0,0,1-.7-1.18c-2.51-9-8.57-10.74-17.43-10.46-23.07.7-46.14,0-69.28,0a5.79,5.79,0,0,1-5.23-8.78c1.05-1.82,2.93-1.26,4.46-1.26Z"/>
                <path class="cls-2" d="M460.7,372.72H429.47c-3.76,0-4.67-1.4-4.53-4.81s0-5.51,4.32-5.51H493c3.84,0,3.7,2.37,3.49,4.88s1,5.57-3.7,5.44Z"/>
                <path class="cls-2" d="M302.54,377.11H271.38c-3.7,0-4.81-1.33-4.67-4.74s0-5.65,4.67-5.65h62.73c4.19,0,4.05,2.3,4.12,5.23s0,5.23-4.18,5.16H302.54Z"/>
                <path class="cls-2" d="M390.16,327.27v25.37c0,3.21-.42,5-4.32,4.81s-6,0-5.93-4.95V301.62a5.57,5.57,0,0,1,8.5-5.51c2.17.9,1.61,2.79,1.61,4.32C390.16,309.14,390.16,318.28,390.16,327.27Z"/>
                <path class="cls-2" d="M387.16,537.78H331.88c-4,0-4.74-1.47-4.74-5s.56-5.23,4.67-5.23H443.34c4.12,0,4.19,2,4.19,5s0,5.3-4.54,5.23H387.16Z"/>
                <path class="cls-2" d="M387.3,550.46h19.45c3.06,0,4.53,1,4.18,4.19s1.18,5.92-3.7,5.92c-13,0-25.93,0-38.89.63-5.16,0-4.32-3.07-4.67-6.28s1.6-4.11,4.6-4h19Z"/>
                <path class="cls-2" d="M384,769.13C171.63,768.83-.3,596.41,0,384S172.72-.3,385.11,0s384.32,172.72,384,385.11A384.56,384.56,0,0,1,384,769.13ZM384,6.41C175.91,6.41,7.2,175.12,7.2,383.24S175.91,760.07,384,760.07,760.85,591.36,760.85,383.24h0C760.58,175.24,592,6.68,384,6.41Z"/>
            </g>
        </g>
    </g>
</svg>